<svg xmlns="http://www.w3.org/2000/svg" viewBox="0 0 47 46" shape-rendering="crispEdges">
<rect x="12" y="0" width="23" height="1" fill="#000000"/>
<rect x="12" y="1" width="23" height="1" fill="#000000"/>
<rect x="9" y="2" width="29" height="1" fill="#000000"/>
<rect x="8" y="3" width="31" height="1" fill="#000000"/>
<rect x="8" y="4" width="31" height="1" fill="#000000"/>
<rect x="8" y="5" width="31" height="1" fill="#000000"/>
<rect x="6" y="6" width="8" height="1" fill="#000000"/>
<rect x="15" y="6" width="26" height="1" fill="#000000"/>
<rect x="5" y="7" width="9" height="1" fill="#000000"/>
<rect x="16" y="7" width="16" height="1" fill="#000000"/>
<rect x="34" y="7" width="8" height="1" fill="#000000"/>
<rect x="5" y="8" width="9" height="1" fill="#000000"/>
<rect x="17" y="8" width="14" height="1" fill="#000000"/>
<rect x="34" y="8" width="8" height="1" fill="#000000"/>
<rect x="3" y="9" width="10" height="1" fill="#000000"/>
<rect x="18" y="9" width="12" height="1" fill="#000000"/>
<rect x="35" y="9" width="9" height="1" fill="#000000"/>
<rect x="2" y="10" width="10" height="1" fill="#000000"/>
<rect x="36" y="10" width="9" height="1" fill="#000000"/>
<rect x="2" y="11" width="10" height="1" fill="#000000"/>
<rect x="36" y="11" width="9" height="1" fill="#000000"/>
<rect x="2" y="12" width="11" height="1" fill="#000000"/>
<rect x="35" y="12" width="10" height="1" fill="#000000"/>
<rect x="1" y="13" width="13" height="1" fill="#000000"/>
<rect x="34" y="13" width="12" height="1" fill="#000000"/>
<rect x="1" y="14" width="13" height="1" fill="#000000"/>
<rect x="34" y="14" width="12" height="1" fill="#000000"/>
<rect x="1" y="15" width="13" height="1" fill="#000000"/>
<rect x="34" y="15" width="12" height="1" fill="#000000"/>
<rect x="0" y="16" width="13" height="1" fill="#000000"/>
<rect x="35" y="16" width="12" height="1" fill="#000000"/>
<rect x="0" y="17" width="13" height="1" fill="#000000"/>
<rect x="36" y="17" width="11" height="1" fill="#000000"/>
<rect x="0" y="18" width="12" height="1" fill="#000000"/>
<rect x="37" y="18" width="10" height="1" fill="#000000"/>
<rect x="0" y="19" width="11" height="1" fill="#000000"/>
<rect x="37" y="19" width="10" height="1" fill="#000000"/>
<rect x="0" y="20" width="11" height="1" fill="#000000"/>
<rect x="37" y="20" width="10" height="1" fill="#000000"/>
<rect x="0" y="21" width="11" height="1" fill="#000000"/>
<rect x="37" y="21" width="10" height="1" fill="#000000"/>
<rect x="0" y="22" width="11" height="1" fill="#000000"/>
<rect x="37" y="22" width="10" height="1" fill="#000000"/>
<rect x="0" y="23" width="12" height="1" fill="#000000"/>
<rect x="36" y="23" width="11" height="1" fill="#000000"/>
<rect x="0" y="24" width="12" height="1" fill="#000000"/>
<rect x="35" y="24" width="12" height="1" fill="#000000"/>
<rect x="0" y="25" width="13" height="1" fill="#000000"/>
<rect x="34" y="25" width="13" height="1" fill="#000000"/>
<rect x="0" y="26" width="14" height="1" fill="#000000"/>
<rect x="33" y="26" width="14" height="1" fill="#000000"/>
<rect x="0" y="27" width="15" height="1" fill="#000000"/>
<rect x="32" y="27" width="15" height="1" fill="#000000"/>
<rect x="0" y="28" width="18" height="1" fill="#000000"/>
<rect x="28" y="28" width="19" height="1" fill="#000000"/>
<rect x="0" y="29" width="21" height="1" fill="#000000"/>
<rect x="26" y="29" width="21" height="1" fill="#000000"/>
<rect x="0" y="30" width="21" height="1" fill="#000000"/>
<rect x="26" y="30" width="21" height="1" fill="#000000"/>
<rect x="0" y="31" width="21" height="1" fill="#000000"/>
<rect x="26" y="31" width="21" height="1" fill="#000000"/>
<rect x="0" y="32" width="20" height="1" fill="#000000"/>
<rect x="27" y="32" width="20" height="1" fill="#000000"/>
<rect x="0" y="33" width="7" height="1" fill="#000000"/>
<rect x="9" y="33" width="10" height="1" fill="#000000"/>
<rect x="28" y="33" width="19" height="1" fill="#000000"/>
<rect x="0" y="34" width="6" height="1" fill="#000000"/>
<rect x="10" y="34" width="9" height="1" fill="#000000"/>
<rect x="28" y="34" width="19" height="1" fill="#000000"/>
<rect x="0" y="35" width="7" height="1" fill="#000000"/>
<rect x="11" y="35" width="8" height="1" fill="#000000"/>
<rect x="28" y="35" width="19" height="1" fill="#000000"/>
<rect x="0" y="36" width="8" height="1" fill="#000000"/>
<rect x="12" y="36" width="6" height="1" fill="#000000"/>
<rect x="28" y="36" width="19" height="1" fill="#000000"/>
<rect x="1" y="37" width="10" height="1" fill="#000000"/>
<rect x="28" y="37" width="18" height="1" fill="#000000"/>
<rect x="2" y="38" width="10" height="1" fill="#000000"/>
<rect x="28" y="38" width="17" height="1" fill="#000000"/>
<rect x="3" y="39" width="15" height="1" fill="#000000"/>
<rect x="28" y="39" width="16" height="1" fill="#000000"/>
<rect x="4" y="40" width="15" height="1" fill="#000000"/>
<rect x="28" y="40" width="15" height="1" fill="#000000"/>
<rect x="4" y="41" width="15" height="1" fill="#000000"/>
<rect x="28" y="41" width="15" height="1" fill="#000000"/>
<rect x="4" y="42" width="15" height="1" fill="#000000"/>
<rect x="28" y="42" width="15" height="1" fill="#000000"/>
<rect x="4" y="43" width="39" height="1" fill="#000000"/>
<rect x="8" y="44" width="31" height="1" fill="#000000"/>
<rect x="11" y="45" width="25" height="1" fill="#000000"/>
</svg>