<svg xmlns="http://www.w3.org/2000/svg" viewBox="0 0 25 20" shape-rendering="crispEdges">
<rect x="10" y="0" width="5" height="1" fill="#0e0c0c"/>
<rect x="9" y="1" width="1" height="1" fill="#0e0c0c"/>
<rect x="10" y="1" width="1" height="1" fill="#381921"/>
<rect x="11" y="1" width="4" height="1" fill="#381920"/>
<rect x="15" y="1" width="1" height="1" fill="#0e0c0c"/>
<rect x="8" y="2" width="2" height="1" fill="#0e0c0c"/>
<rect x="10" y="2" width="5" height="1" fill="#381920"/>
<rect x="15" y="2" width="1" height="1" fill="#0e0c0c"/>
<rect x="7" y="3" width="1" height="1" fill="#0e0c0c"/>
<rect x="8" y="3" width="2" height="1" fill="#381920"/>
<rect x="10" y="3" width="5" height="1" fill="#0e0c0c"/>
<rect x="15" y="3" width="2" height="1" fill="#381920"/>
<rect x="17" y="3" width="1" height="1" fill="#0e0c0c"/>
<rect x="2" y="4" width="6" height="1" fill="#0e0c0c"/>
<rect x="8" y="4" width="2" height="1" fill="#381920"/>
<rect x="10" y="4" width="1" height="1" fill="#0e0c0c"/>
<rect x="14" y="4" width="1" height="1" fill="#0e0c0c"/>
<rect x="15" y="4" width="2" height="1" fill="#381920"/>
<rect x="17" y="4" width="6" height="1" fill="#0e0c0c"/>
<rect x="1" y="5" width="1" height="1" fill="#0e0c0c"/>
<rect x="2" y="5" width="21" height="1" fill="#381920"/>
<rect x="23" y="5" width="1" height="1" fill="#0e0c0c"/>
<rect x="0" y="6" width="1" height="1" fill="#0e0c0c"/>
<rect x="1" y="6" width="1" height="1" fill="#381920"/>
<rect x="2" y="6" width="1" height="1" fill="#6b4646"/>
<rect x="3" y="6" width="19" height="1" fill="#a36f6f"/>
<rect x="22" y="6" width="1" height="1" fill="#6b4646"/>
<rect x="23" y="6" width="1" height="1" fill="#381920"/>
<rect x="24" y="6" width="1" height="1" fill="#0e0c0c"/>
<rect x="0" y="7" width="1" height="1" fill="#0e0c0c"/>
<rect x="1" y="7" width="1" height="1" fill="#381920"/>
<rect x="2" y="7" width="21" height="1" fill="#6b4646"/>
<rect x="23" y="7" width="1" height="1" fill="#381920"/>
<rect x="24" y="7" width="1" height="1" fill="#0e0c0c"/>
<rect x="0" y="8" width="1" height="1" fill="#0e0c0c"/>
<rect x="1" y="8" width="1" height="1" fill="#381920"/>
<rect x="2" y="8" width="21" height="1" fill="#6b4646"/>
<rect x="23" y="8" width="1" height="1" fill="#381920"/>
<rect x="24" y="8" width="1" height="1" fill="#0e0c0c"/>
<rect x="0" y="9" width="1" height="1" fill="#0e0c0c"/>
<rect x="1" y="9" width="1" height="1" fill="#381920"/>
<rect x="2" y="9" width="21" height="1" fill="#6b4646"/>
<rect x="23" y="9" width="1" height="1" fill="#381920"/>
<rect x="24" y="9" width="1" height="1" fill="#0e0c0c"/>
<rect x="1" y="10" width="1" height="1" fill="#0e0c0c"/>
<rect x="2" y="10" width="2" height="1" fill="#381920"/>
<rect x="4" y="10" width="17" height="1" fill="#6b4646"/>
<rect x="21" y="10" width="2" height="1" fill="#381920"/>
<rect x="23" y="10" width="1" height="1" fill="#0e0c0c"/>
<rect x="1" y="11" width="1" height="1" fill="#0e0c0c"/>
<rect x="2" y="11" width="1" height="1" fill="#381920"/>
<rect x="3" y="11" width="1" height="1" fill="#573838"/>
<rect x="4" y="11" width="8" height="1" fill="#381920"/>
<rect x="12" y="11" width="1" height="1" fill="#ffca59"/>
<rect x="13" y="11" width="8" height="1" fill="#381920"/>
<rect x="21" y="11" width="1" height="1" fill="#573838"/>
<rect x="22" y="11" width="1" height="1" fill="#381920"/>
<rect x="23" y="11" width="1" height="1" fill="#0e0c0c"/>
<rect x="1" y="12" width="1" height="1" fill="#0e0c0c"/>
<rect x="2" y="12" width="1" height="1" fill="#381920"/>
<rect x="3" y="12" width="9" height="1" fill="#573838"/>
<rect x="12" y="12" width="1" height="1" fill="#a36f6f"/>
<rect x="13" y="12" width="9" height="1" fill="#573838"/>
<rect x="22" y="12" width="1" height="1" fill="#381920"/>
<rect x="23" y="12" width="1" height="1" fill="#0e0c0c"/>
<rect x="1" y="13" width="1" height="1" fill="#0e0c0c"/>
<rect x="2" y="13" width="1" height="1" fill="#381920"/>
<rect x="3" y="13" width="19" height="1" fill="#573838"/>
<rect x="22" y="13" width="1" height="1" fill="#381920"/>
<rect x="23" y="13" width="1" height="1" fill="#0e0c0c"/>
<rect x="1" y="14" width="1" height="1" fill="#0e0c0c"/>
<rect x="2" y="14" width="1" height="1" fill="#381920"/>
<rect x="3" y="14" width="19" height="1" fill="#573838"/>
<rect x="22" y="14" width="1" height="1" fill="#381920"/>
<rect x="23" y="14" width="1" height="1" fill="#0e0c0c"/>
<rect x="1" y="15" width="1" height="1" fill="#0e0c0c"/>
<rect x="2" y="15" width="1" height="1" fill="#381920"/>
<rect x="3" y="15" width="19" height="1" fill="#573838"/>
<rect x="22" y="15" width="1" height="1" fill="#381920"/>
<rect x="23" y="15" width="1" height="1" fill="#0e0c0c"/>
<rect x="1" y="16" width="1" height="1" fill="#0e0c0c"/>
<rect x="2" y="16" width="1" height="1" fill="#381920"/>
<rect x="3" y="16" width="19" height="1" fill="#573838"/>
<rect x="22" y="16" width="1" height="1" fill="#381920"/>
<rect x="23" y="16" width="1" height="1" fill="#0e0c0c"/>
<rect x="1" y="17" width="1" height="1" fill="#0e0c0c"/>
<rect x="2" y="17" width="1" height="1" fill="#381920"/>
<rect x="3" y="17" width="19" height="1" fill="#573838"/>
<rect x="22" y="17" width="1" height="1" fill="#381920"/>
<rect x="23" y="17" width="1" height="1" fill="#0e0c0c"/>
<rect x="2" y="18" width="1" height="1" fill="#0e0c0c"/>
<rect x="3" y="18" width="19" height="1" fill="#381920"/>
<rect x="22" y="18" width="1" height="1" fill="#0e0c0c"/>
<rect x="3" y="19" width="19" height="1" fill="#0e0c0c"/>
</svg>