<svg width="27" height="22" viewBox="0 0 27 22" fill="none" xmlns="http://www.w3.org/2000/svg">
<path d="M0 3C0 1.34315 1.34315 0 3 0H24C25.6569 0 27 1.34315 27 3C27 4.65685 25.6569 6 24 6H3C1.34315 6 0 4.65685 0 3Z" fill="#FFA2A2"/>
<path d="M0 11C0 9.34315 1.34315 8 3 8H24C25.6569 8 27 9.34315 27 11C27 12.6569 25.6569 14 24 14H3C1.34315 14 0 12.6569 0 11Z" fill="#FFA2A2"/>
<g filter="url(#filter0_i_57_16)">
<path d="M0 19C0 17.3431 1.34315 16 3 16H24C25.6569 16 27 17.3431 27 19C27 20.6569 25.6569 22 24 22H3C1.34315 22 0 20.6569 0 19Z" fill="#FFA2A2"/>
</g>
<defs>
<filter id="filter0_i_57_16" x="0" y="16" width="27" height="10" filterUnits="userSpaceOnUse" color-interpolation-filters="sRGB">
<feFlood flood-opacity="0" result="BackgroundImageFix"/>
<feBlend mode="normal" in="SourceGraphic" in2="BackgroundImageFix" result="shape"/>
<feColorMatrix in="SourceAlpha" type="matrix" values="0 0 0 0 0 0 0 0 0 0 0 0 0 0 0 0 0 0 127 0" result="hardAlpha"/>
<feOffset dy="4"/>
<feGaussianBlur stdDeviation="2"/>
<feComposite in2="hardAlpha" operator="arithmetic" k2="-1" k3="1"/>
<feColorMatrix type="matrix" values="0 0 0 0 0 0 0 0 0 0 0 0 0 0 0 0 0 0 0.25 0"/>
<feBlend mode="normal" in2="shape" result="effect1_innerShadow_57_16"/>
</filter>
</defs>
</svg>
