<svg xmlns="http://www.w3.org/2000/svg" viewBox="0 0 33 26" shape-rendering="crispEdges">
<rect x="1" y="0" width="6" height="1" fill="#0e0c0c"/>
<rect x="0" y="1" width="1" height="1" fill="#0e0c0c"/>
<rect x="1" y="1" width="6" height="1" fill="#f3c25a"/>
<rect x="7" y="1" width="1" height="1" fill="#0e0c0c"/>
<rect x="0" y="2" width="1" height="1" fill="#0e0c0c"/>
<rect x="1" y="2" width="1" height="1" fill="#f3c25a"/>
<rect x="2" y="2" width="5" height="1" fill="#ffaf06"/>
<rect x="7" y="2" width="1" height="1" fill="#f3c25a"/>
<rect x="8" y="2" width="1" height="1" fill="#0e0c0c"/>
<rect x="0" y="3" width="1" height="1" fill="#0e0c0c"/>
<rect x="1" y="3" width="1" height="1" fill="#f3c25a"/>
<rect x="2" y="3" width="2" height="1" fill="#ffaf06"/>
<rect x="4" y="3" width="1" height="1" fill="#ffbc30"/>
<rect x="5" y="3" width="1" height="1" fill="#ffb008"/>
<rect x="6" y="3" width="1" height="1" fill="#ffc445"/>
<rect x="7" y="3" width="1" height="1" fill="#ffaf06"/>
<rect x="8" y="3" width="1" height="1" fill="#f3c25a"/>
<rect x="9" y="3" width="16" height="1" fill="#0e0c0c"/>
<rect x="0" y="4" width="1" height="1" fill="#0e0c0c"/>
<rect x="1" y="4" width="1" height="1" fill="#f3c25a"/>
<rect x="2" y="4" width="2" height="1" fill="#ffaf06"/>
<rect x="4" y="4" width="1" height="1" fill="#ffc13d"/>
<rect x="5" y="4" width="1" height="1" fill="#ffb415"/>
<rect x="6" y="4" width="3" height="1" fill="#ffaf06"/>
<rect x="9" y="4" width="16" height="1" fill="#f3c25a"/>
<rect x="25" y="4" width="1" height="1" fill="#0e0c0c"/>
<rect x="0" y="5" width="1" height="1" fill="#0e0c0c"/>
<rect x="1" y="5" width="1" height="1" fill="#f3c25a"/>
<rect x="2" y="5" width="2" height="1" fill="#ffaf06"/>
<rect x="4" y="5" width="3" height="1" fill="#ffc549"/>
<rect x="7" y="5" width="1" height="1" fill="#ffb517"/>
<rect x="8" y="5" width="6" height="1" fill="#ffaf06"/>
<rect x="14" y="5" width="1" height="1" fill="#ffbf36"/>
<rect x="15" y="5" width="5" height="1" fill="#ffaf06"/>
<rect x="20" y="5" width="1" height="1" fill="#ffc343"/>
<rect x="21" y="5" width="4" height="1" fill="#ffaf06"/>
<rect x="25" y="5" width="1" height="1" fill="#f3c25a"/>
<rect x="26" y="5" width="1" height="1" fill="#0e0c0c"/>
<rect x="0" y="6" width="1" height="1" fill="#0e0c0c"/>
<rect x="1" y="6" width="1" height="1" fill="#f3c25a"/>
<rect x="2" y="6" width="12" height="1" fill="#ffaf06"/>
<rect x="14" y="6" width="1" height="1" fill="#ffbf37"/>
<rect x="15" y="6" width="10" height="1" fill="#ffaf06"/>
<rect x="25" y="6" width="1" height="1" fill="#f3c25a"/>
<rect x="26" y="6" width="1" height="1" fill="#0e0c0c"/>
<rect x="0" y="7" width="1" height="1" fill="#0e0c0c"/>
<rect x="1" y="7" width="1" height="1" fill="#f3c25a"/>
<rect x="2" y="7" width="3" height="1" fill="#ffaf06"/>
<rect x="5" y="7" width="26" height="1" fill="#0e0c0c"/>
<rect x="0" y="8" width="1" height="1" fill="#0e0c0c"/>
<rect x="1" y="8" width="1" height="1" fill="#f3c25a"/>
<rect x="2" y="8" width="1" height="1" fill="#ffb20f"/>
<rect x="3" y="8" width="2" height="1" fill="#ffaf06"/>
<rect x="5" y="8" width="1" height="1" fill="#0e0c0c"/>
<rect x="6" y="8" width="25" height="1" fill="#ffffff"/>
<rect x="31" y="8" width="1" height="1" fill="#0e0c0c"/>
<rect x="0" y="9" width="1" height="1" fill="#0e0c0c"/>
<rect x="1" y="9" width="1" height="1" fill="#f3c25a"/>
<rect x="2" y="9" width="1" height="1" fill="#ffbf37"/>
<rect x="3" y="9" width="1" height="1" fill="#ffaf06"/>
<rect x="4" y="9" width="1" height="1" fill="#0e0c0c"/>
<rect x="5" y="9" width="24" height="1" fill="#bdbdbd"/>
<rect x="29" y="9" width="2" height="1" fill="#ddcbc9"/>
<rect x="31" y="9" width="1" height="1" fill="#0e0c0c"/>
<rect x="0" y="10" width="1" height="1" fill="#0e0c0c"/>
<rect x="1" y="10" width="1" height="1" fill="#f3c25a"/>
<rect x="2" y="10" width="2" height="1" fill="#ffaf06"/>
<rect x="4" y="10" width="1" height="1" fill="#0e0c0c"/>
<rect x="5" y="10" width="1" height="1" fill="#bdbdbd"/>
<rect x="6" y="10" width="27" height="1" fill="#0e0c0c"/>
<rect x="0" y="11" width="1" height="1" fill="#0e0c0c"/>
<rect x="1" y="11" width="1" height="1" fill="#f3c25a"/>
<rect x="2" y="11" width="1" height="1" fill="#ffaf06"/>
<rect x="3" y="11" width="1" height="1" fill="#0e0c0c"/>
<rect x="4" y="11" width="2" height="1" fill="#bdbdbd"/>
<rect x="6" y="11" width="1" height="1" fill="#0e0c0c"/>
<rect x="7" y="11" width="24" height="1" fill="#ffd47a"/>
<rect x="31" y="11" width="1" height="1" fill="#ffc549"/>
<rect x="32" y="11" width="1" height="1" fill="#0e0c0c"/>
<rect x="0" y="12" width="1" height="1" fill="#0e0c0c"/>
<rect x="1" y="12" width="1" height="1" fill="#f3c25a"/>
<rect x="2" y="12" width="1" height="1" fill="#ffaf06"/>
<rect x="3" y="12" width="1" height="1" fill="#0e0c0c"/>
<rect x="4" y="12" width="1" height="1" fill="#bdbdbd"/>
<rect x="5" y="12" width="1" height="1" fill="#0e0c0c"/>
<rect x="6" y="12" width="1" height="1" fill="#ffd47a"/>
<rect x="7" y="12" width="3" height="1" fill="#ffc549"/>
<rect x="10" y="12" width="1" height="1" fill="#ffc44a"/>
<rect x="11" y="12" width="1" height="1" fill="#ffc649"/>
<rect x="12" y="12" width="2" height="1" fill="#ffc449"/>
<rect x="14" y="12" width="1" height="1" fill="#ffc54a"/>
<rect x="15" y="12" width="1" height="1" fill="#ffc549"/>
<rect x="16" y="12" width="1" height="1" fill="#ffc54a"/>
<rect x="17" y="12" width="5" height="1" fill="#ffc549"/>
<rect x="22" y="12" width="1" height="1" fill="#ffc449"/>
<rect x="23" y="12" width="2" height="1" fill="#ffc54a"/>
<rect x="25" y="12" width="4" height="1" fill="#ffc549"/>
<rect x="29" y="12" width="1" height="1" fill="#ffc54a"/>
<rect x="30" y="12" width="1" height="1" fill="#ffc64a"/>
<rect x="31" y="12" width="1" height="1" fill="#ffc549"/>
<rect x="32" y="12" width="1" height="1" fill="#0e0c0c"/>
<rect x="0" y="13" width="1" height="1" fill="#0e0c0c"/>
<rect x="1" y="13" width="1" height="1" fill="#f3c25a"/>
<rect x="2" y="13" width="1" height="1" fill="#0e0c0c"/>
<rect x="3" y="13" width="2" height="1" fill="#bdbdbd"/>
<rect x="5" y="13" width="1" height="1" fill="#0e0c0c"/>
<rect x="6" y="13" width="1" height="1" fill="#ffd47a"/>
<rect x="7" y="13" width="11" height="1" fill="#ffc549"/>
<rect x="18" y="13" width="1" height="1" fill="#ffc54a"/>
<rect x="19" y="13" width="11" height="1" fill="#ffc549"/>
<rect x="30" y="13" width="1" height="1" fill="#ffc449"/>
<rect x="31" y="13" width="1" height="1" fill="#0e0c0c"/>
<rect x="0" y="14" width="1" height="1" fill="#0e0c0c"/>
<rect x="1" y="14" width="1" height="1" fill="#f3c25a"/>
<rect x="2" y="14" width="1" height="1" fill="#0e0c0c"/>
<rect x="3" y="14" width="1" height="1" fill="#bdbdbd"/>
<rect x="4" y="14" width="1" height="1" fill="#0e0c0c"/>
<rect x="5" y="14" width="1" height="1" fill="#ffd47a"/>
<rect x="6" y="14" width="11" height="1" fill="#ffc549"/>
<rect x="17" y="14" width="1" height="1" fill="#ffc54a"/>
<rect x="18" y="14" width="1" height="1" fill="#ffc549"/>
<rect x="19" y="14" width="1" height="1" fill="#ffc54a"/>
<rect x="20" y="14" width="1" height="1" fill="#ffc549"/>
<rect x="21" y="14" width="1" height="1" fill="#ffc54a"/>
<rect x="22" y="14" width="1" height="1" fill="#ffc64a"/>
<rect x="23" y="14" width="8" height="1" fill="#ffc549"/>
<rect x="31" y="14" width="1" height="1" fill="#0e0c0c"/>
<rect x="0" y="15" width="2" height="1" fill="#0e0c0c"/>
<rect x="2" y="15" width="2" height="1" fill="#bdbdbd"/>
<rect x="4" y="15" width="1" height="1" fill="#0e0c0c"/>
<rect x="5" y="15" width="1" height="1" fill="#ffd47a"/>
<rect x="6" y="15" width="4" height="1" fill="#ffc549"/>
<rect x="10" y="15" width="1" height="1" fill="#ffc54a"/>
<rect x="11" y="15" width="7" height="1" fill="#ffc549"/>
<rect x="18" y="15" width="1" height="1" fill="#ffc54a"/>
<rect x="19" y="15" width="2" height="1" fill="#ffc549"/>
<rect x="21" y="15" width="1" height="1" fill="#ffc54a"/>
<rect x="22" y="15" width="5" height="1" fill="#ffc549"/>
<rect x="27" y="15" width="1" height="1" fill="#ffc54a"/>
<rect x="28" y="15" width="2" height="1" fill="#ffc549"/>
<rect x="30" y="15" width="1" height="1" fill="#0e0c0c"/>
<rect x="0" y="16" width="2" height="1" fill="#0e0c0c"/>
<rect x="2" y="16" width="1" height="1" fill="#bdbdbd"/>
<rect x="3" y="16" width="1" height="1" fill="#0e0c0c"/>
<rect x="4" y="16" width="1" height="1" fill="#ffd47a"/>
<rect x="5" y="16" width="9" height="1" fill="#ffc549"/>
<rect x="14" y="16" width="1" height="1" fill="#ffc54a"/>
<rect x="15" y="16" width="2" height="1" fill="#ffc549"/>
<rect x="17" y="16" width="1" height="1" fill="#ffc54a"/>
<rect x="18" y="16" width="1" height="1" fill="#ffc549"/>
<rect x="19" y="16" width="1" height="1" fill="#ffc44a"/>
<rect x="20" y="16" width="7" height="1" fill="#ffc549"/>
<rect x="27" y="16" width="1" height="1" fill="#ffc649"/>
<rect x="28" y="16" width="2" height="1" fill="#ffc549"/>
<rect x="30" y="16" width="1" height="1" fill="#0e0c0c"/>
<rect x="0" y="17" width="1" height="1" fill="#0e0c0c"/>
<rect x="1" y="17" width="2" height="1" fill="#bdbdbd"/>
<rect x="3" y="17" width="1" height="1" fill="#0e0c0c"/>
<rect x="4" y="17" width="1" height="1" fill="#ffd47a"/>
<rect x="5" y="17" width="8" height="1" fill="#ffc549"/>
<rect x="13" y="17" width="1" height="1" fill="#ffc54a"/>
<rect x="14" y="17" width="5" height="1" fill="#ffc549"/>
<rect x="19" y="17" width="1" height="1" fill="#ffc44a"/>
<rect x="20" y="17" width="1" height="1" fill="#ffc54a"/>
<rect x="21" y="17" width="1" height="1" fill="#ffc549"/>
<rect x="22" y="17" width="1" height="1" fill="#ffc649"/>
<rect x="23" y="17" width="1" height="1" fill="#ffc549"/>
<rect x="24" y="17" width="1" height="1" fill="#ffc54a"/>
<rect x="25" y="17" width="4" height="1" fill="#ffc549"/>
<rect x="29" y="17" width="1" height="1" fill="#0e0c0c"/>
<rect x="0" y="18" width="1" height="1" fill="#0e0c0c"/>
<rect x="1" y="18" width="1" height="1" fill="#bdbdbd"/>
<rect x="2" y="18" width="1" height="1" fill="#0e0c0c"/>
<rect x="3" y="18" width="1" height="1" fill="#ffd47a"/>
<rect x="4" y="18" width="6" height="1" fill="#ffc549"/>
<rect x="10" y="18" width="1" height="1" fill="#ffc54a"/>
<rect x="11" y="18" width="2" height="1" fill="#ffc549"/>
<rect x="13" y="18" width="1" height="1" fill="#ffc449"/>
<rect x="14" y="18" width="1" height="1" fill="#ffc54a"/>
<rect x="15" y="18" width="9" height="1" fill="#ffc549"/>
<rect x="24" y="18" width="1" height="1" fill="#ffc44a"/>
<rect x="25" y="18" width="1" height="1" fill="#ffc64a"/>
<rect x="26" y="18" width="1" height="1" fill="#ffc549"/>
<rect x="27" y="18" width="1" height="1" fill="#ffc54a"/>
<rect x="28" y="18" width="1" height="1" fill="#ffc549"/>
<rect x="29" y="18" width="1" height="1" fill="#0e0c0c"/>
<rect x="0" y="19" width="1" height="1" fill="#0e0c0c"/>
<rect x="1" y="19" width="1" height="1" fill="#bdbdbd"/>
<rect x="2" y="19" width="1" height="1" fill="#0e0c0c"/>
<rect x="3" y="19" width="1" height="1" fill="#ffd47a"/>
<rect x="4" y="19" width="8" height="1" fill="#ffc549"/>
<rect x="12" y="19" width="1" height="1" fill="#ffc649"/>
<rect x="13" y="19" width="1" height="1" fill="#ffc549"/>
<rect x="14" y="19" width="1" height="1" fill="#ffc44a"/>
<rect x="15" y="19" width="4" height="1" fill="#ffc549"/>
<rect x="19" y="19" width="1" height="1" fill="#ffc44a"/>
<rect x="20" y="19" width="1" height="1" fill="#ffc549"/>
<rect x="21" y="19" width="1" height="1" fill="#ffc54a"/>
<rect x="22" y="19" width="5" height="1" fill="#ffc549"/>
<rect x="27" y="19" width="1" height="1" fill="#ffc54a"/>
<rect x="28" y="19" width="1" height="1" fill="#0e0c0c"/>
<rect x="0" y="20" width="2" height="1" fill="#0e0c0c"/>
<rect x="2" y="20" width="1" height="1" fill="#ffd47a"/>
<rect x="3" y="20" width="8" height="1" fill="#ffc549"/>
<rect x="11" y="20" width="1" height="1" fill="#ffc649"/>
<rect x="12" y="20" width="1" height="1" fill="#ffc54a"/>
<rect x="13" y="20" width="1" height="1" fill="#ffc549"/>
<rect x="14" y="20" width="1" height="1" fill="#ffc449"/>
<rect x="15" y="20" width="2" height="1" fill="#ffc549"/>
<rect x="17" y="20" width="1" height="1" fill="#ffc54a"/>
<rect x="18" y="20" width="9" height="1" fill="#ffc549"/>
<rect x="27" y="20" width="1" height="1" fill="#ffc54a"/>
<rect x="28" y="20" width="1" height="1" fill="#0e0c0c"/>
<rect x="0" y="21" width="2" height="1" fill="#0e0c0c"/>
<rect x="2" y="21" width="1" height="1" fill="#ffd47a"/>
<rect x="3" y="21" width="12" height="1" fill="#ffc549"/>
<rect x="15" y="21" width="1" height="1" fill="#ffc54a"/>
<rect x="16" y="21" width="1" height="1" fill="#ffc549"/>
<rect x="17" y="21" width="1" height="1" fill="#ffc449"/>
<rect x="18" y="21" width="6" height="1" fill="#ffc549"/>
<rect x="24" y="21" width="1" height="1" fill="#ffc649"/>
<rect x="25" y="21" width="2" height="1" fill="#ffc549"/>
<rect x="27" y="21" width="1" height="1" fill="#0e0c0c"/>
<rect x="0" y="22" width="1" height="1" fill="#0e0c0c"/>
<rect x="1" y="22" width="1" height="1" fill="#ffd47a"/>
<rect x="2" y="22" width="12" height="1" fill="#ffc549"/>
<rect x="14" y="22" width="1" height="1" fill="#ffc449"/>
<rect x="15" y="22" width="12" height="1" fill="#ffc549"/>
<rect x="27" y="22" width="1" height="1" fill="#0e0c0c"/>
<rect x="0" y="23" width="1" height="1" fill="#0e0c0c"/>
<rect x="1" y="23" width="1" height="1" fill="#ffd47a"/>
<rect x="2" y="23" width="22" height="1" fill="#ffc549"/>
<rect x="24" y="23" width="1" height="1" fill="#ffc449"/>
<rect x="25" y="23" width="1" height="1" fill="#ffc549"/>
<rect x="26" y="23" width="1" height="1" fill="#0e0c0c"/>
<rect x="0" y="24" width="1" height="1" fill="#0e0c0c"/>
<rect x="1" y="24" width="1" height="1" fill="#ffd47a"/>
<rect x="2" y="24" width="16" height="1" fill="#ffc549"/>
<rect x="18" y="24" width="1" height="1" fill="#ffc54a"/>
<rect x="19" y="24" width="2" height="1" fill="#ffc549"/>
<rect x="21" y="24" width="1" height="1" fill="#ffc449"/>
<rect x="22" y="24" width="4" height="1" fill="#ffc549"/>
<rect x="26" y="24" width="1" height="1" fill="#0e0c0c"/>
<rect x="1" y="25" width="25" height="1" fill="#0e0c0c"/>
</svg>